<?xml version="1.0" encoding="utf-8"?>
<svg version="1.1" x="0px" y="0px"
	 viewBox="0 0 96 96" style="enable-background:new 0 0 96 96;" xml:space="preserve">
<g>
	<path style="fill: #333333;" d="M95.97,47.99c0,15.39-0.02,30.78,0.03,46.18C96,96,96,96,96,96c-30.87-0.07-65.13-0.05-96,0c0,0,0-0.36,0-1.7
		C0.05,63.44,0.04,30.87,0,0c0,0,0.16,0,1.62,0c30.96,0.06,61.92,0.05,92.87,0.01C95.8,0.01,96,0,96,0
		C95.96,15.47,95.97,32.52,95.97,47.99z M48.01,80.93c18.7-0.69,32.83-14.49,32.79-33c-0.05-18.45-14.08-32.62-32.67-32.72
		c-18.37-0.09-32.86,13.9-32.91,32.73C15.16,66.47,29.34,80.25,48.01,80.93z"/>
	<path style="fill: #595959;" d="M48.01,80.93c-18.67-0.68-32.85-14.46-32.79-32.99c0.05-18.83,14.54-32.82,32.91-32.73
		c18.59,0.1,32.63,14.26,32.67,32.72C80.84,66.43,66.71,80.24,48.01,80.93z M72.95,48.07c-0.72-14.02-10.13-24.68-24.75-24.84
		c-14.1-0.15-24.89,10.01-24.97,24.7c-0.07,14.02,9.97,24.66,24.59,24.84C61.85,72.94,72.19,62.67,72.95,48.07z"/>
	<path style="fill: #333333;" d="M72.95,48.07c-0.76,14.6-11.09,24.87-25.13,24.7C33.2,72.59,23.15,61.95,23.23,47.93
		c0.08-14.69,10.87-24.85,24.97-24.7C62.81,23.39,72.23,34.05,72.95,48.07z M48.1,62.45c8.32-0.57,14.23-6.08,14.21-14.49
		c-0.02-8.67-6.25-14.32-14.29-14.32c-8.45,0.01-14.48,6.18-14.33,14.51C33.85,56.96,40.13,62.02,48.1,62.45z"/>
</g>
</svg>
