<?xml version="1.0" encoding="utf-8"?>
<svg version="1.1" x="0px" y="0px"
	 viewBox="0 0 84 84" style="enable-background:new 0 0 84 84;" xml:space="preserve">
<g>
	<path d="M42.13,67.02C28.24,67.05,16.97,55.8,16.98,41.93C17,28.19,28.21,16.98,41.98,16.94
		c13.89-0.03,25.17,11.22,25.15,25.08C67.1,55.78,55.89,66.99,42.13,67.02z M42.14,25.02c-9.35-0.03-17.07,7.62-17.07,16.94
		c-0.01,9.23,7.57,16.91,16.77,16.99c9.37,0.08,17.14-7.51,17.2-16.81C59.1,32.78,51.47,25.05,42.14,25.02z"/>
	<path d="M42.14,25.02c9.33,0.03,16.96,7.76,16.9,17.11c-0.06,9.3-7.83,16.9-17.2,16.81c-9.2-0.08-16.78-7.76-16.77-16.99
		C25.08,32.64,32.8,24.98,42.14,25.02z"/>
</g>
</svg>
